<svg width="152" height="48" viewBox="0 0 152 48" fill="none" xmlns="http://www.w3.org/2000/svg">
<path d="M24.5 46.5C36.9264 46.5 47 36.4264 47 24C47 11.5736 36.9264 1.5 24.5 1.5C12.0736 1.5 2 11.5736 2 24C2 36.4264 12.0736 46.5 24.5 46.5Z" fill="#22C55E"/>
<path d="M14 33C14 33 15.5 18 24.5 12C33.5 18 35 33 35 33" stroke="#F0FDF4" stroke-width="2.25" stroke-linecap="round" stroke-linejoin="round"/>
<path d="M24.5 12V30" stroke="#F0FDF4" stroke-width="1.875" stroke-linecap="round"/>
<path d="M24.5 18L18.5 22.5" stroke="#F0FDF4" stroke-width="1.5" stroke-linecap="round"/>
<path d="M24.5 22.5L17 27" stroke="#F0FDF4" stroke-width="1.5" stroke-linecap="round"/>
<path d="M24.5 18L30.5 22.5" stroke="#F0FDF4" stroke-width="1.5" stroke-linecap="round"/>
<path d="M24.5 22.5L32 27" stroke="#F0FDF4" stroke-width="1.5" stroke-linecap="round"/>
<path d="M59.6705 15.0455L63.8892 28.3068H64.0511L68.2784 15.0455H72.3693L66.3523 32.5H61.5966L55.571 15.0455H59.6705ZM78.8913 32.7557C77.5447 32.7557 76.3857 32.483 75.4141 31.9375C74.4482 31.3864 73.7038 30.608 73.1811 29.6023C72.6584 28.5909 72.397 27.3949 72.397 26.0142C72.397 24.6676 72.6584 23.4858 73.1811 22.4688C73.7038 21.4517 74.4396 20.6591 75.3885 20.0909C76.343 19.5227 77.4624 19.2386 78.7464 19.2386C79.6101 19.2386 80.4141 19.3778 81.1584 19.6562C81.9084 19.929 82.5618 20.3409 83.1186 20.892C83.6811 21.4432 84.1186 22.1364 84.4311 22.9716C84.7436 23.8011 84.8999 24.7727 84.8999 25.8864V26.8835H73.8459V24.6335H81.4822C81.4822 24.1108 81.3686 23.6477 81.1413 23.2443C80.9141 22.8409 80.5987 22.5256 80.1953 22.2983C79.7976 22.0653 79.3345 21.9489 78.8061 21.9489C78.255 21.9489 77.7663 22.0767 77.3402 22.3324C76.9197 22.5824 76.5902 22.9205 76.3516 23.3466C76.1129 23.767 75.9908 24.2358 75.9851 24.7528V26.892C75.9851 27.5398 76.1044 28.0994 76.343 28.571C76.5874 29.0426 76.9311 29.4062 77.3743 29.6619C77.8175 29.9176 78.343 30.0455 78.951 30.0455C79.3544 30.0455 79.7237 29.9886 80.0589 29.875C80.3942 29.7614 80.6811 29.5909 80.9197 29.3636C81.1584 29.1364 81.3402 28.858 81.4652 28.5284L84.8232 28.75C84.6527 29.5568 84.3033 30.2614 83.7749 30.8636C83.2521 31.4602 82.576 31.9261 81.7464 32.2614C80.9226 32.5909 79.9709 32.7557 78.8913 32.7557Z" fill="#14532D"/>
<path d="M99.5909 20.6875C99.4716 20.2727 99.304 19.9062 99.0881 19.5881C98.8722 19.2642 98.608 18.9915 98.2955 18.7699C97.9886 18.5426 97.6364 18.3693 97.2386 18.25C96.8466 18.1307 96.4119 18.071 95.9347 18.071C95.0426 18.071 94.2585 18.2926 93.5824 18.7358C92.9119 19.179 92.3892 19.8239 92.0142 20.6705C91.6392 21.5114 91.4517 22.5398 91.4517 23.7557C91.4517 24.9716 91.6364 26.0057 92.0057 26.858C92.375 27.7102 92.8977 28.3608 93.5739 28.8097C94.25 29.2528 95.0483 29.4744 95.9688 29.4744C96.804 29.4744 97.517 29.3267 98.108 29.0312C98.7045 28.7301 99.1591 28.3068 99.4716 27.7614C99.7898 27.2159 99.9489 26.571 99.9489 25.8267L100.699 25.9375H96.1989V23.1591H103.503V25.358C103.503 26.892 103.179 28.2102 102.531 29.3125C101.884 30.4091 100.991 31.2557 99.8551 31.8523C98.7188 32.4432 97.4176 32.7386 95.9517 32.7386C94.3153 32.7386 92.8778 32.3778 91.6392 31.6562C90.4006 30.929 89.4347 29.8977 88.7415 28.5625C88.054 27.2216 87.7102 25.6307 87.7102 23.7898C87.7102 22.375 87.9148 21.1136 88.3239 20.0057C88.7386 18.892 89.3182 17.9489 90.0625 17.1761C90.8068 16.4034 91.6733 15.8153 92.6619 15.4119C93.6506 15.0085 94.7216 14.8068 95.875 14.8068C96.8636 14.8068 97.7841 14.9517 98.6364 15.2415C99.4886 15.5256 100.244 15.929 100.903 16.4517C101.568 16.9744 102.111 17.5966 102.531 18.3182C102.952 19.0341 103.222 19.8239 103.341 20.6875H99.5909ZM112.121 32.7557C110.798 32.7557 109.653 32.4744 108.687 31.9119C107.727 31.3437 106.985 30.554 106.462 29.5426C105.94 28.5256 105.678 27.3466 105.678 26.0057C105.678 24.6534 105.94 23.4716 106.462 22.4602C106.985 21.4432 107.727 20.6534 108.687 20.0909C109.653 19.5227 110.798 19.2386 112.121 19.2386C113.445 19.2386 114.587 19.5227 115.548 20.0909C116.513 20.6534 117.258 21.4432 117.781 22.4602C118.303 23.4716 118.565 24.6534 118.565 26.0057C118.565 27.3466 118.303 28.5256 117.781 29.5426C117.258 30.554 116.513 31.3437 115.548 31.9119C114.587 32.4744 113.445 32.7557 112.121 32.7557ZM112.138 29.9432C112.741 29.9432 113.244 29.7727 113.647 29.4318C114.05 29.0852 114.354 28.6136 114.559 28.017C114.769 27.4205 114.874 26.7415 114.874 25.9801C114.874 25.2188 114.769 24.5398 114.559 23.9432C114.354 23.3466 114.05 22.875 113.647 22.5284C113.244 22.1818 112.741 22.0085 112.138 22.0085C111.531 22.0085 111.019 22.1818 110.604 22.5284C110.195 22.875 109.886 23.3466 109.675 23.9432C109.471 24.5398 109.369 25.2188 109.369 25.9801C109.369 26.7415 109.471 27.4205 109.675 28.017C109.886 28.6136 110.195 29.0852 110.604 29.4318C111.019 29.7727 111.531 29.9432 112.138 29.9432ZM126.84 32.7557C125.516 32.7557 124.371 32.4744 123.406 31.9119C122.445 31.3437 121.704 30.554 121.181 29.5426C120.658 28.5256 120.397 27.3466 120.397 26.0057C120.397 24.6534 120.658 23.4716 121.181 22.4602C121.704 21.4432 122.445 20.6534 123.406 20.0909C124.371 19.5227 125.516 19.2386 126.84 19.2386C128.164 19.2386 129.306 19.5227 130.266 20.0909C131.232 20.6534 131.977 21.4432 132.499 22.4602C133.022 23.4716 133.283 24.6534 133.283 26.0057C133.283 27.3466 133.022 28.5256 132.499 29.5426C131.977 30.554 131.232 31.3437 130.266 31.9119C129.306 32.4744 128.164 32.7557 126.84 32.7557ZM126.857 29.9432C127.46 29.9432 127.962 29.7727 128.366 29.4318C128.769 29.0852 129.073 28.6136 129.278 28.017C129.488 27.4205 129.593 26.7415 129.593 25.9801C129.593 25.2188 129.488 24.5398 129.278 23.9432C129.073 23.3466 128.769 22.875 128.366 22.5284C127.962 22.1818 127.46 22.0085 126.857 22.0085C126.249 22.0085 125.738 22.1818 125.323 22.5284C124.914 22.875 124.604 23.3466 124.394 23.9432C124.19 24.5398 124.087 25.2188 124.087 25.9801C124.087 26.7415 124.19 27.4205 124.394 28.017C124.604 28.6136 124.914 29.0852 125.323 29.4318C125.738 29.7727 126.249 29.9432 126.857 29.9432ZM140.468 32.7131C139.474 32.7131 138.573 32.4574 137.766 31.946C136.965 31.429 136.329 30.6705 135.857 29.6705C135.391 28.6648 135.158 27.4318 135.158 25.9716C135.158 24.4716 135.4 23.2244 135.883 22.2301C136.366 21.2301 137.008 20.483 137.809 19.9886C138.616 19.4886 139.499 19.2386 140.46 19.2386C141.192 19.2386 141.803 19.3636 142.292 19.6136C142.786 19.858 143.184 20.1648 143.485 20.5341C143.792 20.8977 144.025 21.2557 144.184 21.608H144.295V15.0455H147.917V32.5H144.337V30.4034H144.184C144.013 30.767 143.772 31.1278 143.46 31.4858C143.153 31.8381 142.752 32.1307 142.258 32.3636C141.769 32.5966 141.173 32.7131 140.468 32.7131ZM141.619 29.8239C142.204 29.8239 142.698 29.6648 143.102 29.3466C143.511 29.0227 143.823 28.571 144.039 27.9915C144.261 27.4119 144.371 26.733 144.371 25.9545C144.371 25.1761 144.263 24.5 144.048 23.9261C143.832 23.3523 143.519 22.9091 143.11 22.5966C142.701 22.2841 142.204 22.1278 141.619 22.1278C141.022 22.1278 140.519 22.2898 140.11 22.6136C139.701 22.9375 139.391 23.3864 139.181 23.9602C138.971 24.5341 138.866 25.1989 138.866 25.9545C138.866 26.7159 138.971 27.3892 139.181 27.9744C139.397 28.554 139.707 29.0085 140.11 29.3381C140.519 29.6619 141.022 29.8239 141.619 29.8239Z" fill="#22C55E"/>
</svg>
